<mxfile host="app.diagrams.net" modified="2024-01-21T13:27:18.014Z" agent="Mozilla/5.0 (Windows NT 10.0; Win64; x64) AppleWebKit/537.36 (KHTML, like Gecko) Chrome/120.0.0.0 Safari/537.36 OPR/106.0.0.0" etag="hO7VKcVgpHUo6cxPP-rs" version="22.1.21" type="github">
  <diagram name="Página-1" id="Riw7ORk4q9Sf7HXYTesq">
    <mxGraphModel dx="909" dy="500" grid="0" gridSize="10" guides="1" tooltips="1" connect="1" arrows="1" fold="1" page="1" pageScale="1" pageWidth="827" pageHeight="1169" background="#D4E1F5" math="0" shadow="0">
      <root>
        <mxCell id="0" />
        <mxCell id="1" parent="0" />
        <mxCell id="ROAAnvuw7xD0VsjCzzO7-4" value="" style="whiteSpace=wrap;html=1;aspect=fixed;fillColor=#fff2cc;strokeColor=#d6b656;" vertex="1" parent="1">
          <mxGeometry x="180" y="60" width="360" height="360" as="geometry" />
        </mxCell>
        <mxCell id="ROAAnvuw7xD0VsjCzzO7-1" value="Usuario" style="shape=umlActor;verticalLabelPosition=bottom;verticalAlign=top;html=1;outlineConnect=0;strokeWidth=3;" vertex="1" parent="1">
          <mxGeometry x="90" y="190" width="50" height="110" as="geometry" />
        </mxCell>
        <mxCell id="ROAAnvuw7xD0VsjCzzO7-14" style="rounded=0;orthogonalLoop=1;jettySize=auto;html=1;endArrow=none;endFill=0;entryX=1;entryY=0.5;entryDx=0;entryDy=0;" edge="1" parent="1" source="ROAAnvuw7xD0VsjCzzO7-3" target="ROAAnvuw7xD0VsjCzzO7-11">
          <mxGeometry relative="1" as="geometry" />
        </mxCell>
        <mxCell id="ROAAnvuw7xD0VsjCzzO7-3" value="Bibliotecario&lt;br&gt;" style="shape=umlActor;verticalLabelPosition=bottom;verticalAlign=top;html=1;outlineConnect=0;strokeWidth=3;" vertex="1" parent="1">
          <mxGeometry x="580" y="190" width="50" height="100" as="geometry" />
        </mxCell>
        <mxCell id="ROAAnvuw7xD0VsjCzzO7-7" value="Biblioteca" style="text;strokeColor=#d79b00;fillColor=#ffe6cc;html=1;fontSize=24;fontStyle=1;verticalAlign=middle;align=center;" vertex="1" parent="1">
          <mxGeometry x="300" y="70" width="130" height="40" as="geometry" />
        </mxCell>
        <mxCell id="ROAAnvuw7xD0VsjCzzO7-16" style="rounded=0;orthogonalLoop=1;jettySize=auto;html=1;endArrow=none;endFill=0;" edge="1" parent="1" source="ROAAnvuw7xD0VsjCzzO7-10" target="ROAAnvuw7xD0VsjCzzO7-1">
          <mxGeometry relative="1" as="geometry" />
        </mxCell>
        <mxCell id="ROAAnvuw7xD0VsjCzzO7-10" value="Buscar Libro" style="ellipse;whiteSpace=wrap;html=1;" vertex="1" parent="1">
          <mxGeometry x="290" y="150" width="140" height="50" as="geometry" />
        </mxCell>
        <mxCell id="ROAAnvuw7xD0VsjCzzO7-18" style="rounded=0;orthogonalLoop=1;jettySize=auto;html=1;endArrow=none;endFill=0;exitX=0;exitY=0.5;exitDx=0;exitDy=0;" edge="1" parent="1" source="ROAAnvuw7xD0VsjCzzO7-11">
          <mxGeometry relative="1" as="geometry">
            <mxPoint x="140" y="250" as="targetPoint" />
          </mxGeometry>
        </mxCell>
        <mxCell id="ROAAnvuw7xD0VsjCzzO7-11" value="Prestar Libro" style="ellipse;whiteSpace=wrap;html=1;" vertex="1" parent="1">
          <mxGeometry x="290" y="240" width="140" height="50" as="geometry" />
        </mxCell>
        <mxCell id="ROAAnvuw7xD0VsjCzzO7-17" style="rounded=0;orthogonalLoop=1;jettySize=auto;html=1;endArrow=none;endFill=0;exitX=0;exitY=0.5;exitDx=0;exitDy=0;" edge="1" parent="1" source="ROAAnvuw7xD0VsjCzzO7-12" target="ROAAnvuw7xD0VsjCzzO7-1">
          <mxGeometry relative="1" as="geometry">
            <mxPoint x="160" y="260" as="targetPoint" />
          </mxGeometry>
        </mxCell>
        <mxCell id="ROAAnvuw7xD0VsjCzzO7-12" value="Devolver Libro" style="ellipse;whiteSpace=wrap;html=1;" vertex="1" parent="1">
          <mxGeometry x="210" y="320" width="140" height="50" as="geometry" />
        </mxCell>
        <mxCell id="ROAAnvuw7xD0VsjCzzO7-15" style="rounded=0;orthogonalLoop=1;jettySize=auto;html=1;endArrow=none;endFill=0;exitX=0.986;exitY=0.365;exitDx=0;exitDy=0;exitPerimeter=0;" edge="1" parent="1" source="ROAAnvuw7xD0VsjCzzO7-13" target="ROAAnvuw7xD0VsjCzzO7-3">
          <mxGeometry relative="1" as="geometry" />
        </mxCell>
        <mxCell id="ROAAnvuw7xD0VsjCzzO7-13" value="Actualizar Catálogo" style="ellipse;whiteSpace=wrap;html=1;" vertex="1" parent="1">
          <mxGeometry x="380" y="320" width="140" height="50" as="geometry" />
        </mxCell>
      </root>
    </mxGraphModel>
  </diagram>
</mxfile>
